<?xml version="1.0"?>
<svg xmlns="http://www.w3.org/2000/svg" xmlns:xlink="http://www.w3.org/1999/xlink" xmlns:svgjs="http://svgjs.com/svgjs" version="1.1" width="512" height="512" x="0" y="0" viewBox="0 0 511.78 511.78" style="enable-background:new 0 0 512 512" xml:space="preserve" class=""><g>
<path xmlns="http://www.w3.org/2000/svg" style="" d="M488.512,253.984l-62.101-160c-1.129-29.434-25.905-52.379-55.339-51.25  c-26.885,1.031-48.792,21.926-51.093,48.732l-31.147,31.147c-14.648-18.262-41.327-21.192-59.589-6.544  c-2.414,1.936-4.608,4.13-6.544,6.544l-31.147-31.147c-2.319-29.364-28.002-51.288-57.366-48.97  c-27.098,2.14-48.252,24.318-49.109,51.487l-62.101,160c-42.166,63.93-24.522,149.938,39.409,192.104  c52.472,34.608,121.659,29.593,168.591-12.221c16.15,4.791,33.343,4.791,49.493,0c57.181,50.945,144.834,45.89,195.779-11.291  c41.814-46.932,46.829-116.12,12.221-168.591L488.512,253.984z" fill="#272828" data-original="#455a64" class=""/>
<g xmlns="http://www.w3.org/2000/svg">
	<circle style="" cx="138.411" cy="330.784" r="96" fill="#00bcd4" data-original="#00bcd4" class=""/>
	<circle style="" cx="373.078" cy="330.784" r="96" fill="#00bcd4" data-original="#00bcd4" class=""/>
</g>
<g xmlns="http://www.w3.org/2000/svg">
	<path style="" d="M202.411,234.784c-4.589-0.003-8.662-2.942-10.112-7.296l-21.333-64   c-2.074-5.514,0.715-11.665,6.229-13.739c5.514-2.074,11.665,0.715,13.739,6.229c0.095,0.253,0.18,0.509,0.256,0.768l21.333,64   c1.862,5.589-1.16,11.629-6.749,13.491C204.689,234.599,203.554,234.783,202.411,234.784z" fill="#607d8b" data-original="#607d8b"/>
	<path style="" d="M309.078,234.784c-5.891-0.004-10.663-4.784-10.659-10.675c0.001-1.143,0.185-2.278,0.547-3.363   l21.333-64c1.649-5.655,7.571-8.903,13.227-7.253c5.655,1.649,8.903,7.571,7.253,13.227c-0.076,0.259-0.161,0.515-0.256,0.768   l-21.333,64C317.739,231.842,313.667,234.781,309.078,234.784z" fill="#607d8b" data-original="#607d8b"/>
</g>
<path xmlns="http://www.w3.org/2000/svg" d="M138.411,426.784c-53.019,0-96-42.981-96-96s42.981-96,96-96s96,42.981,96,96S191.43,426.784,138.411,426.784z   M138.411,256.117c-41.237,0-74.667,33.429-74.667,74.667s33.429,74.667,74.667,74.667s74.667-33.429,74.667-74.667  S179.648,256.117,138.411,256.117z" fill="#000000" data-original="#000000" style="" class=""/>
<path xmlns="http://www.w3.org/2000/svg" d="M373.078,426.784c-53.019,0-96-42.981-96-96s42.981-96,96-96s96,42.981,96,96S426.097,426.784,373.078,426.784z   M373.078,256.117c-41.237,0-74.667,33.429-74.667,74.667s33.429,74.667,74.667,74.667s74.667-33.429,74.667-74.667  S414.315,256.117,373.078,256.117z" fill="#000000" data-original="#000000" style="" class=""/>
<path xmlns="http://www.w3.org/2000/svg" d="M373.078,469.451c-34.209,0.063-67.216-12.615-92.587-35.563c-16.15,4.791-33.343,4.791-49.493,0  c-57.138,50.992-144.796,46.01-195.788-11.128c-41.91-46.962-46.933-116.261-12.233-168.776l62.101-160  c1.129-29.434,25.905-52.379,55.339-51.25c26.885,1.031,48.792,21.926,51.093,48.732l31.147,31.147  c14.648-18.262,41.327-21.192,59.589-6.544c2.414,1.936,4.608,4.13,6.544,6.544l31.147-31.147  c2.319-29.364,28.002-51.288,57.366-48.97c27.098,2.14,48.252,24.318,49.109,51.487l62.144,160  c42.415,63.765,25.108,149.841-38.656,192.257C427.139,461.38,400.413,469.455,373.078,469.451z M283.264,411.189  c2.806,0.006,5.496,1.118,7.488,3.093c46.344,45.293,120.63,44.442,165.923-1.902c38.846-39.747,44.478-101.295,13.49-147.431  c-0.453-0.668-0.833-1.383-1.131-2.133L405.803,99.979c-0.475-1.232-0.72-2.541-0.725-3.861c0-17.673-14.327-32-32-32  s-32,14.327-32,32c0.005,2.831-1.115,5.548-3.115,7.552l-42.667,42.667c-5.601,4.484-13.777,3.579-18.262-2.022  c-0.492-0.615-0.928-1.273-1.301-1.967c-3.838-11.04-15.898-16.878-26.938-13.041c-6.112,2.125-10.916,6.929-13.041,13.041  c-1.508,4.256-5.533,7.101-10.048,7.104c-3.418,0.014-6.748-1.079-9.493-3.115l-42.667-42.667c-2.007-2.001-3.135-4.718-3.136-7.552  c0-17.673-14.327-32-32-32s-32,14.327-32,32c-0.005,1.321-0.251,2.629-0.725,3.861L42.411,262.837  c-0.298,0.75-0.677,1.465-1.131,2.133C5.149,318.765,19.468,391.663,73.262,427.794c46.137,30.988,107.685,25.356,147.432-13.49  c2.863-2.885,7.135-3.857,10.965-2.496c15.497,5.876,32.609,5.876,48.107,0C280.888,411.405,282.071,411.196,283.264,411.189  L283.264,411.189z" fill="#000000" data-original="#000000" style="" class=""/>
<path xmlns="http://www.w3.org/2000/svg" d="M202.411,234.784c-4.589-0.003-8.662-2.942-10.112-7.296l-21.333-64c-2.074-5.514,0.715-11.665,6.229-13.739  c5.514-2.074,11.665,0.715,13.739,6.229c0.095,0.253,0.18,0.509,0.256,0.768l21.333,64c1.862,5.589-1.16,11.629-6.749,13.491  C204.689,234.599,203.554,234.783,202.411,234.784z" fill="#000000" data-original="#000000" style="" class=""/>
<path xmlns="http://www.w3.org/2000/svg" d="M309.078,234.784c-5.891-0.004-10.663-4.784-10.659-10.675c0.001-1.143,0.185-2.278,0.547-3.363l21.333-64  c1.649-5.655,7.571-8.903,13.227-7.253c5.655,1.649,8.903,7.571,7.253,13.227c-0.076,0.259-0.161,0.515-0.256,0.768l-21.333,64  C317.739,231.842,313.667,234.781,309.078,234.784z" fill="#000000" data-original="#000000" style="" class=""/>
<g xmlns="http://www.w3.org/2000/svg">
</g>
<g xmlns="http://www.w3.org/2000/svg">
</g>
<g xmlns="http://www.w3.org/2000/svg">
</g>
<g xmlns="http://www.w3.org/2000/svg">
</g>
<g xmlns="http://www.w3.org/2000/svg">
</g>
<g xmlns="http://www.w3.org/2000/svg">
</g>
<g xmlns="http://www.w3.org/2000/svg">
</g>
<g xmlns="http://www.w3.org/2000/svg">
</g>
<g xmlns="http://www.w3.org/2000/svg">
</g>
<g xmlns="http://www.w3.org/2000/svg">
</g>
<g xmlns="http://www.w3.org/2000/svg">
</g>
<g xmlns="http://www.w3.org/2000/svg">
</g>
<g xmlns="http://www.w3.org/2000/svg">
</g>
<g xmlns="http://www.w3.org/2000/svg">
</g>
<g xmlns="http://www.w3.org/2000/svg">
</g>
</g></svg>
