<?xml version="1.0"?>
<svg xmlns="http://www.w3.org/2000/svg" xmlns:xlink="http://www.w3.org/1999/xlink" xmlns:svgjs="http://svgjs.com/svgjs" version="1.1" width="512" height="512" x="0" y="0" viewBox="0 0 512 512" style="enable-background:new 0 0 512 512" xml:space="preserve" class=""><g><g xmlns="http://www.w3.org/2000/svg"><path d="m47.38 0h445.62v512h-445.62z" fill="#eaf4f4" data-original="#eaf4f4" style="" class=""/><path d="m270.19 0h222.81v512h-222.81z" fill="#cae8ea" data-original="#cae8ea" style="" class=""/><g><g fill="#a7d2db"><path d="m301.204 116.806h97.284v29.942h-97.284z" fill="#a7d2db" data-original="#a7d2db" style=""/><path d="m301.204 241.113h97.284v29.942h-97.284z" fill="#a7d2db" data-original="#a7d2db" style=""/><path d="m301.204 375.229h97.284v29.942h-97.284z" fill="#a7d2db" data-original="#a7d2db" style=""/></g><g fill="#00dc7b"><path d="m255.221 103.814-21.213-21.171-48.518 48.424-22.456-22.413-21.214 21.172 43.67 43.584z" fill="#00dc7b" data-original="#00dc7b" style="" class=""/><path d="m185.49 257.213-22.456-22.413-21.214 21.172 43.67 43.584 69.731-69.596-21.213-21.171z" fill="#00dc7b" data-original="#00dc7b" style="" class=""/><path d="m185.49 383.358-22.457-22.411-21.213 21.171 43.67 43.583 69.731-69.595-21.213-21.171z" fill="#00dc7b" data-original="#00dc7b" style="" class=""/></g></g><g fill="#ffe26f"><path d="m19 327.682h82.765v29.942h-82.765z" fill="#ffe26f" data-original="#ffe26f" style=""/><path d="m19 414.336h82.765v29.942h-82.765z" fill="#ffe26f" data-original="#ffe26f" style=""/><path d="m19 154.374h82.765v29.942h-82.765z" fill="#ffe26f" data-original="#ffe26f" style=""/><path d="m19 241.028h82.765v29.942h-82.765z" fill="#ffe26f" data-original="#ffe26f" style=""/><path d="m19 67.72h82.765v29.942h-82.765z" fill="#ffe26f" data-original="#ffe26f" style=""/></g></g></g></svg>
