<svg id="Capa_1" enable-background="new 0 0 512 512" height="512" viewBox="0 0 512 512" width="512" xmlns="http://www.w3.org/2000/svg"><g><path d="m497 362.773h-70l-20-35.16h-302l-20 35.16h-70c0-133.1 107.9-241 241-241h.01c133.1.01 240.99 107.9 240.99 241z" fill="#4c5c72"/><path d="m497 362.773h-70l-20-35.16h-150.99v-205.84c133.1.01 240.99 107.9 240.99 241z" fill="#343941"/><path d="m241 121.773h30v54h-30z" fill="#ffea01"/><path d="m134 150.447h30v54h-30z" fill="#ffa84a" transform="matrix(.866 -.5 .5 .866 -68.762 98.274)"/><path d="m414.329 240.777h54v30h-54z" fill="#01b71d" transform="matrix(.866 -.5 .5 .866 -68.761 254.935)"/><path d="m55.671 228.777h30v54h-30z" fill="#ff8548" transform="matrix(.5 -.866 .866 .5 -186.174 189.092)"/><path d="m336 162.447h54v30h-54z" fill="#80c200" transform="matrix(.5 -.866 .866 .5 27.825 403.089)"/><path d="m256.01 121.773h14.99v54h-14.99z" fill="#ffc303"/><path d="m437.02 181.753c-48.35-48.35-112.63-74.98-181.01-74.98h-.01c-68.38 0-132.67 26.63-181.02 74.98-48.35 48.36-74.98 112.64-74.98 181.02v15h93.72l20-35.16h284.56l20 35.16h93.72v-15c0-68.38-26.63-132.66-74.98-181.02zm-1.3 166.02-20-35.16h-319.44l-20 35.16h-45.79c7.75-117.64 105.94-211 225.51-211h.01c119.57.01 217.75 93.36 225.5 211z" fill="#626d7f"/><path d="m512 362.773v15h-93.72l-20-35.16h-142.27v-30h159.71l20 35.16h45.79c-7.75-117.64-105.93-210.99-225.5-211v-30c68.38 0 132.66 26.63 181.01 74.98 48.35 48.36 74.98 112.64 74.98 181.02z" fill="#464f53"/><g><path d="m275.07 399.073c-21.03 12.42-48.15 5.45-60.58-15.59-12.42-21.03-31.82-140.83-31.82-140.83s95.56 74.8 107.99 95.83c12.42 21.04 5.45 48.16-15.59 60.59z" fill="#ff6826"/></g><path d="m275.07 399.073-92.4-156.42s95.56 74.8 107.99 95.83c12.42 21.04 5.45 48.16-15.59 60.59z" fill="#e50057"/></g></svg>